<?xml version="1.0" standalone="no"?>
<!DOCTYPE svg PUBLIC "-//W3C//DTD SVG 20010904//EN"
 "http://www.w3.org/TR/2001/REC-SVG-20010904/DTD/svg10.dtd">
<svg version="1.0" xmlns="http://www.w3.org/2000/svg"
 width="158.000000pt" height="158.000000pt" viewBox="0 0 158.000000 158.000000"
 preserveAspectRatio="xMidYMid meet">
<metadata>
Created by potrace 1.11, written by Peter Selinger 2001-2013
</metadata>
<g transform="translate(0.000000,158.000000) scale(0.100000,-0.100000)"
fill="#000000" stroke="none">
<path d="M930 1546 c-6 -8 -18 -12 -26 -9 -8 3 -24 -4 -34 -15 -20 -22 -43
-99 -33 -115 3 -5 -4 -17 -15 -27 -11 -10 -22 -24 -24 -31 -3 -9 -11 -7 -30 5
-21 14 -31 15 -48 6 -32 -17 -58 -3 -79 46 -14 31 -26 44 -40 44 -12 0 -21 -7
-21 -16 0 -8 -4 -12 -10 -9 -27 17 5 -49 41 -86 10 -9 29 -23 44 -30 15 -8 28
-18 27 -24 0 -5 4 -16 10 -22 6 -7 11 -49 13 -93 1 -45 7 -86 12 -91 7 -7 6
-23 -4 -49 -14 -36 -14 -42 2 -77 19 -40 29 -51 60 -69 20 -11 40 -94 23 -94
-5 0 -6 -4 -3 -10 3 -6 -1 -7 -9 -4 -9 3 -16 13 -16 21 0 8 -5 11 -11 7 -7 -4
-7 -10 -1 -16 9 -9 -13 -53 -38 -78 -3 -3 -18 -21 -34 -40 -16 -19 -37 -37
-48 -40 -10 -3 -19 -9 -19 -15 0 -5 -9 -19 -20 -31 -10 -11 -16 -23 -13 -27
13 -13 -7 -27 -26 -17 -21 11 -28 4 -35 -32 -3 -12 -11 -25 -18 -30 -9 -4 -13
-18 -10 -35 12 -78 13 -191 2 -218 -6 -17 -12 -45 -13 -63 -1 -27 2 -32 19
-30 13 2 24 -6 34 -27 8 -16 18 -32 23 -33 5 -2 3 -11 -4 -20 -11 -13 -10 -15
5 -9 10 4 23 7 28 7 6 0 7 5 3 12 -4 7 -3 8 5 4 9 -6 9 -11 0 -22 -9 -11 -8
-14 2 -15 21 -2 75 5 89 12 3 1 10 3 15 4 18 3 49 16 78 31 15 8 27 11 27 7 0
-5 9 -9 19 -9 11 0 19 4 18 9 -1 5 12 12 28 14 17 2 31 8 33 12 1 5 14 6 27 3
20 -3 36 8 86 59 34 35 72 79 85 99 13 19 36 53 51 75 14 22 32 45 39 53 8 7
19 30 25 52 10 34 9 42 -10 69 -12 17 -26 31 -30 31 -5 0 -22 13 -39 29 -22
22 -27 31 -16 35 26 10 28 55 4 81 -13 14 -19 29 -15 36 5 7 2 17 -7 23 -21
16 -28 42 -15 56 9 9 9 14 1 17 -13 4 -9 34 8 69 10 21 -13 90 -53 157 -16 27
-16 30 13 82 l29 54 -28 40 c-15 22 -33 40 -40 41 -16 0 -35 58 -21 66 5 3 8
17 5 30 -2 14 0 27 5 30 4 3 6 10 2 15 -3 5 2 21 11 35 18 28 14 39 -36 82
-42 37 -43 37 -59 18z"/>
<path d="M455 131 c-3 -5 -2 -12 3 -15 5 -3 9 1 9 9 0 17 -3 19 -12 6z"/>
<path d="M356 115 c-18 -14 -18 -15 5 -34 28 -23 47 -28 30 -7 -10 11 -9 15 5
18 15 3 14 5 -2 20 -17 14 -22 15 -38 3z"/>
<path d="M419 73 c-13 -16 -12 -17 4 -4 16 13 21 21 13 21 -2 0 -10 -8 -17
-17z"/>
<path d="M472 84 c4 -3 21 -7 40 -10 26 -3 29 -2 13 5 -22 11 -62 14 -53 5z"/>
</g>
</svg>
