<svg xmlns="http://www.w3.org/2000/svg" width="332.626" height="576.122" viewBox="0 0 332.626 576.122">
  <g id="smap_Layer_x0020_1" transform="translate(-178.456 -6705.894)" fill="#f5f4f6">
    <path id="smap_polygon3697" d="M826.45,1817.822l1.006-.622.882.965-.037,1.242-2.1,1.039-2.129-1.7-1.7.547,1.221,4.684-1.495,1.291-1.819-1.357-1.952.6-1.777-5,1.037-2.322,5.7-1.605,1.594,2.262Z" transform="translate(-483.699 5171.114)" fill-rule="evenodd"/>
    <path id="smap_polygon3699" d="M975.548,1162.845l-1.216-.746.648-.8,1.637.438.227,1.109Z" transform="translate(-629.044 5826.161)" fill-rule="evenodd"/>
    <path id="smap_polygon3701" d="M929.019,2036.95l-.437.664-1.723.085.36-1.644.146-.668,1.824-.6.425,1.254Z" transform="translate(-624.611 5003.27)" fill-rule="evenodd"/>
    <g id="smap__84533872" transform="translate(178.456 6705.894)">
      <path id="smap_lappi" d="M618.79,244.646l3.337-1.594,3.3.924,1-.8-.066-3.018-2.281-1.641.058-3.116,1.706-.262.827-5.62-3.359-1.395-2.3-4.889.888-3.294,2.727-1.066-.089-2.989,13.515,3.129,8.234-1.044-2.179-5.76-11.733-19.56,1.356-4.416,17.857-33.063.675-8.092-8.4-6.2-8.605-17.344-13.158-5.285-4.453-18.329,5.241-9.327,1.178-8.353-1.48-2.476-5.967.021,9.814-8.152-1.875-6.489.635-6.059,9.439-12.109L629.294,33.55,613.41,25.824l-.37-3.406L608.18,19.4l-5.037-6.926-2.84,1.767-2.807-.9-1.946,2.79-7.782,6.092-8.986-2.311L573.615,21.7l-3.151,7.407-5.318,4.671-2.616,4.14,1,2.87-1.709,3.073-3.331,18.814.674,11.171-1.817,6.289-3.7-.936-3.358,1.992-4.578,6.647.513,6.424-3.141-.019-1.123,2.265-4.392-5.339-7.943-3.43-7.5-5.488-3.794,1.967-2.009,3.5-5.014,1.749L506,91.826l-1.263-2.579-5.838-.6-5.583-3.991L490.089,86l.371-6.183L477.716,54.3l-7.534-2.584L465.49,54l-3.145,3.71,1.847,4.815-.947,3.253L457.3,61.232,453.089,65.3l5.4,6.894.321,4.732,4.136,1.1,5.928,12.15L473.2,91.5l1.589,3.939,4.042,1.953,1.64,4.682,5.921,1.333,7.884,3.569,8.563,7.79.016,5.192,1.129,3.054,2.612-.362,1.089,5.122,4.811,4.945-2,2.349-1.584,2.636-.073,3.317.217,10.192-2.743,6.96,2.116,3.761,5.018.854-1.279,2.852.97,3.281-4.318,2.216-.2,5.653,8.647,19.728-3.185,3.476-.621,10.1-3.22,2.757-.863,2.779-1.09,3.329.759,3.009-.838,2.148,1.428,7,3.672,3.515.2,3.7,3.055,4.923.27,3.55,1.848,4.914.047,3.949,2.017-.23,1.41-2.218,1.762,2.088,3.8,1.389,1.187,1.736-1.336,2.768.963,1.1,1.846-1.19.717,2.283,1.5-.151,1.271-1.024,2.533.372,1.508,1.927,1.615-.147,1.189,1.2-.109.1,2.725-2.73,3.873-1.984.58-2.653,9.712.548,8.46-5.261.637,5.388,16.719,1.429,5.669-1.907,7.73-12.433,2.467,1.109,1.875-.877,2.521,6.179,12.273,1.916,5.425-2.34.206-3.418Z" transform="translate(-373.663 -12.472)" fill-rule="evenodd"/>
      <path id="smap_pohjois-pohjanmaa" d="M872.681,1198.52l1.012-3.371-1.944-3.177,5.137-3.378,3.493-.324-1.587-11-5.373-15.129-4.507-6.56-3.407-9.055-8.233,1.044-13.516-3.129.09,2.99-2.727,1.066-.89,3.294,2.3,4.888,3.358,1.4-.827,5.62-1.705.262-.058,3.115,2.282,1.642.064,3.017-1,.8-3.3-.926-3.338,1.6,2.683,3.99-.206,3.419-5.425,2.34-12.275-1.917-2.521-6.178-1.874.877-2.468-1.108-7.729,12.432-5.668,1.907-16.72-1.428-.637-5.389-8.459,5.262-9.713-.548-.58,2.652-3.873,1.985-2.612,2.63.335.341.1,2.347,1.266.006.846-.769,3.4,5.972-.184,2.232-1.486,1.558,0,2.625-1.145,1.383.99,1.8-.017,5.6-1.58,2.09.8,1.717,2.257,1.287.962,1.74.572,3.73,1.712,1.723-.141,1.021-1.166-.054-2.621-2.093-2.437-.208-.428,1.2.211,1.533,3.554,3.522.715,2.115-.934.836-1.633-.14-.322-1.883L760,1233.313l-3.332-.026-1.723,1.324-3.9.04-1.3,1.144-.769,1.377-2.249.257-.933,4.761-3.481,2.39-1.851,7.731-2.3,1.754-.161,1.255-3.172,2.074-3.68,3.894-.549,1.289-1.4,2.265-.042,2.639-1.114.594-1.367-.894-1.631,2.438-1.352,1.075-1.351,2.032-1.789,2.691-.219,4.222,3.605,4.91,2.252-.029,1.7,1.51,1.414-.76-1.624-2.177,1.471-2.728,3.735-.716,1.715,6.762,1.964,1.009.907,3.765,2.686,1.044,2.994,8.886,11.261,13.539,3.183-.417L758.78,1307l2.68-1.1,8.5,5.754,4.294.013,1.727,1.422,1.622,3.382,5.617-.039,2.937-8.2,1.505-.892-1.356-13.588,9.054-8.259,6.262-2.082-1.973-2.449,0-12.588-2.839-1.865-2.134.293-2.637-2.281.414-2.548-1.346-2.943-2.406-1.558,4.561-4.6,2.4-.7.9-2.861,5.162-2.486,1.822-5.217,4.713-2.218.153-1.327,5.542,1.26,1.04-2.766-.448-7.343-3.118-2.576,2.311-3.746,5.072.022,2.639-1.943,2.938.378,2.585,1.762,1.111-6.743,2.71-1.628,13.155-2.332.613-6.03,7.445-3.469,1.581,1.275,2.689-.8,2.263-4.788,1.1.9,6.362.3,6.683-1.282Z" transform="translate(-592.89 -941.029)" fill-rule="evenodd"/>
      <path id="smap_kainuu" d="M1192.715,1496.615l2-1.736.118-3.6-1.926-2.38.81-2.866-9.175-1.86-2.7-10.255.976-3.607,3.5-1.152,1.382-2.825-1.273-1.668,1.553-3.145-1.482-1.693-4.753-.433,1.988-6.641.391-5.823.624-2.074-6.71,1.375-6.362-.3-1.1-.9-2.263,4.788-2.689.8-1.582-1.274-7.444,3.469-.614,6.03-13.155,2.331-2.709,1.628-1.112,6.741-2.585-1.761-2.938-.379-2.638,1.943-5.074-.021-2.31,3.747,3.118,2.575.448,7.342L1126,1485.76l-5.542-1.26-.153,1.326-4.713,2.218-1.822,5.218-5.163,2.486-.9,2.863-2.4.7-4.56,4.6,2.4,1.558,1.347,2.944-.413,2.547,2.636,2.281,2.134-.291,2.84,1.864,0,12.588,1.974,2.45,7.859,2.938,9.3.7,11.223,7.092,7.313,8.329,4.861-11.057,12.262,2.239,18.248-3.217,3.785,9.511,2.459-2.647,4.584.4-.326-.316,5.869-4.132,6.213-16.008-1.926-8.844-9.847-6.668-2.811-7.466Z" transform="translate(-904.937 -1187.46)" fill-rule="evenodd"/>
      <path id="smap_pohjois-karjala" d="M1393.56,2019.325l-2.37.622,3.24,7.058,2.214.672,5.061,4.592.346,1.9,2.6,2.167-1.1,2.567,2.55,1.8,2.574-1.549,1.529,1.856,0,2.989,3.4,5.48,2.019,10.92,3.493,1.508,1.4,3.17-1.154,1.436,2.05,4.107-2.312,6.621,16.3-8.706,3.226-3.3,7.262-12.556,5.228-7.91,3.441-1.328,6.384-11.724,7.557-23.663-2.2-5.494-6.372-5.115-2.108-7.158-4.54-3.095-5.778-4.495-8.152-3.654-3.282-4.576-9.616-10.133-4.56-.406-2.459,2.646-3.785-9.506-18.248,3.215-12.262-2.238-2.858,6.459,3.559,3.911,2.813.21.717,5.735,1.578,1.265-1.2,1.731.714,6.6,2.775,1.616.067,3.882-2.47,4.461,1.981,1.754,4.216,8.746,5.9,3-3.947,2.827,3.2,4.272-3.372,4.574-4.524-1.947Z" transform="translate(-1135.883 -1607.632)" fill-rule="evenodd"/>
      <path id="smap_etela-savo" d="M1083.712,2416.346l.129,2.263,2.625,2.426,1.571.225.211,2.795,1.97-.782,2.926,4.577,2.743-1.4.047-2.795,3.663.074.011,4.806,5.081,2.486,2.945-.985,3.9-.926,2.931-4.935,2.816-.239,1.682-3.391,3.242.074,1.871-2.256,3.049.559,9.02-.777,4.608-5.622,1.374-3.361,2.583,1.944,6.792-.041.877-3.043,5.543.246,5.589-1.765,3.452-5.654,4.4-1.468,1.025-2.879.084-.043,2.312-6.621-2.05-4.107,1.154-1.436-1.4-3.17-3.493-1.508-2.019-10.92-3.4-5.48,0-2.989-1.529-1.857-2.574,1.549-2.551-1.8,1.1-2.566-2.6-2.167-.346-1.9-5.061-4.592-2.214-.672-1.822.525-4.726,4.608-2.485,0,.007,5.27-2.159-.264-1.708,2.795,1.968,1.474-1.134,2.293,3.217-.124.226,2.7,3.022-.729,4.163,5.118-1.316,3.185-8.336-3.21-5.181.584-3.162-2.753-4.642-.271-2.674-4.606-9.27-7.958-4.451,2.976-1.922-2.41-3.887.956-1,1.49-2.707-1.167-2.878,1.541-1.911,1.308,3.015,3.285-2.669.933-1.577,6.6-3.2-1.607-4.455,2.728-2.514,5.066,4.031,7.3-1.183,1.761.938,9.705,3.858,5.609-.95,3.462-3.4-1.073-.479,1.267-1.817,4.8-.632,5.74Z" transform="translate(-889.247 -1926.852)" fill-rule="evenodd"/>
      <path id="smap_pohjois-savo" d="M1123.379,1945.13l1.2-1.731-1.578-1.265-.717-5.735-2.813-.21-3.559-3.911-1.986,4.551-7.305-8.32-11.223-7.092-9.3-.7-7.859-2.938-6.262,2.083-9.053,8.273,1.354,13.575-1.505.892-2.937,8.2-1.281,4.662,1.93,2.6.608,9.527,3.725,5.063-2.217,1.463,1.755,1.715-1.46,2.428-5.336.685,7.595,9.375,2.237-.544,3.231,4.871.89,5.155-3.564,3.765.007,1.526,4.058,2.565,1.972-.25,1.211,1.382,2.878-1.54,2.707,1.167,1-1.49,3.887-.956,1.922,2.41,4.451-2.977,9.27,7.958,2.674,4.606,4.642.271,3.162,2.753,5.181-.584,8.336,3.21,1.316-3.185-4.163-5.119-3.022.73-.226-2.7-3.217.124,1.134-2.293-1.968-1.474,1.708-2.795,2.159.264-.007-5.27,2.485,0,4.726-4.608,1.822-.525-3.24-7.058,2.37-.622.734-2.178,4.524,1.947,3.372-4.574-3.2-4.272,3.947-2.827-5.9-3-4.216-8.746-1.981-1.754,2.47-4.461-.068-3.882-2.774-1.616Z" transform="translate(-869.511 -1575.398)" fill-rule="evenodd"/>
      <path id="smap_kanta-hame" d="M603.473,2774.767l-2.6-1.945L599,2773.955l-.039,1.484,2.219,1.31-1.484,3.415-2.651.534-.254,2.5,1.5,1.731-1.239,1.094.139,2.144,4.612,2.337,3.494-1.722,6.456,4.892,5.723,1.871,8.31,1.413,1.025,2.241,1.967-1.488,2.023.953.5,1.862,5.083-.987-.221-2.577,1.43-1.9,3.2.469,5.415-.7,1.828-.773,3.633,1.019-.266-1.6,2.4-1.722-1.659-1.145-1.628,1.366.516-2.273,1.884-.573-.788-1.961-1.173-2.5,1.83-1.526-3.191-3.83,1.349-5.44,5-2.942-.4-6.716-2.684-2.047-2.1.979.582-2.151-4.491-1.774-3.2,1.415-2.142-2.114-.986,2.2L636,2758.984l-5.2,4.022-.868-.649-.629.974.068,1.165.6.7-1.605,1.887-12.522,4.691.769,5.82-.931.9-3.728-4.021-5.445,2.049-2.633.04Z" transform="translate(-491.546 -2265.056)" fill-rule="evenodd"/>
      <path id="smap_paijat-hame" d="M901,2618.5l3.306,1.641,3.781,5.751,5.334,2.085-1.835,4.824-.632,5.744,1.729,1.215.129,2.263,2.625,2.428,1.571.225.211,2.8-1.686.924-1.438,3.726-3.83,2.559-3.969-.013-.674,2.407,1.06,2.263.8,4.035-2.265-.137-.983,1.851,2.92,1.236-1.409,2.64.109,3.046,2.47,1.616.406,2.823.781.385-.3,2.5-2.4,1.272-2.308-2.045-3.621.78-.14-2.471-2.428,1.693-1.56-.253-5.123,1.567-1.279-1.58-.267.149-1.274-4.565-.861-.758-2.883,2.98-3.719-4.465-2.57.674-1.173-2.5,1.83-1.526-3.191-3.83,1.349-5.44,5-2.942-.4-6.716L879.5,2647.3l-2.1.98.582-2.152-4.491-1.774-.4-9.454,1.571.9,14.018-1.3,2.835-10.077,4.258-1.928,2.259,1.06Z" transform="translate(-718.195 -2150.196)" fill-rule="evenodd"/>
      <g id="smap_ahvenanmaa" transform="translate(0 530.075)">
        <path id="smap__84090848" d="M266.64,2968.358l-1.493-.311-.3-5.713,1.124-.066,1.93,2.831Z" transform="translate(-219.245 -2962.267)" fill-rule="evenodd"/>
        <path id="smap__84090920" d="M240.537,2979.609l1.439-.92,1.368,2.143-.46,2.085-1.415.776-1.179-2.64Z" transform="translate(-199.105 -2975.738)" fill-rule="evenodd"/>
        <path id="smap__84090992" d="M256.1,3002.344l1.91-1.621,1.211,1.443-.46,2.629-.943.854-1.179-.7Z" transform="translate(-212.069 -2993.813)" fill-rule="evenodd"/>
        <path id="smap__84091064" d="M231.715,3018.717l-1.415.388-.943-1.01.585-1.821,1.761.746Z" transform="translate(-190.136 -3006.57)" fill-rule="evenodd"/>
        <path id="smap__84091136" d="M210.609,3018.812l-1.334.288-.473-.6v-.077l.506-1.589,1.054-.73.955.92Z" transform="translate(-173.274 -3006.43)" fill-rule="evenodd"/>
        <path id="smap__84091208" d="M214.492,3042.815l-1.806,1.609-.866-.6-.157-.776-.044-1.587,1.6-.731.955,1.308Z" transform="translate(-175.585 -3026.629)" fill-rule="evenodd"/>
        <path id="smap__84091280" d="M196.489,3056.271l.24,1.15-1.809.021-.55-2.175.585-.967,1.132.2.4,1Z" transform="translate(-161.435 -3037.763)" fill-rule="evenodd"/>
        <path id="smap__84091352" d="M184.5,3072.64l1.112,2.4-.238.537-.075.915-2.124-.133-.493-2.164-1-1.1,1.057-1.511Z" transform="translate(-151.031 -3051.939)" fill-rule="evenodd"/>
        <path id="smap__84014728" d="M145.975,3012.576l-4.088-.289.079-1.242,1.057-.811,2.949,1.425Z" transform="translate(-118.384 -3001.615)" fill-rule="evenodd"/>
        <path id="smap__203112424" d="M146.205,3031.78l1.057-.812.683,1.122-.579,1.324.922,1.391-1.457,2.015-.939-.014.156-2.669-1.1-1.114Z" transform="translate(-120.895 -3018.622)" fill-rule="evenodd"/>
        <path id="smap__203108800" d="M141.775,3108.3l.915,1.093-1.2,1.468-3.736,1.084-2.747-.094-.551-.883,2.514-2.047,1.371-1.044Z" transform="translate(-112.288 -3081.712)" fill-rule="evenodd"/>
        <path id="smap__203111368" d="M162.884,3091.513l.82-.917,1.048.2,1.237,1.156.036.852-2.2-.248Z" transform="translate(-135.608 -3067.536)" fill-rule="evenodd"/>
        <path id="smap__203090560" d="M124.337,3075.11l.587,1.317-1.961-.016-.315-2.744,1.763-2.083.683.113.286,1.479Z" transform="translate(-102.602 -3051.939)" fill-rule="evenodd"/>
        <path id="smap__203104216" d="M31.214,3005.438l.014,1.2L30.611,3008l1.087,1.111-.189,1.357-1.792,1.222-.452-1.885-1.161.219-.84-1.891-2.522-1.778-2.221.483-.308-1.878-.859-1.077-1.72-.174-1.03-1.141-.3-2.187-1.762-2-1.2.018-.965-.218-.5,1.722-1.359.074-1-2.2.537-2.328-.963-1.019.6-1.556,3.489-1.469,1.585.494,1.695-.255,1.357-1.713,1.506.947-.413,2.664,1.115.28.952-1.075-.35-.789-.008-1.1-.832-1.406-2.6-.367,2.279-2.951,2.235-.965,2.871,2.746,2.65.48,1.162,1.928,1.527.649.239,1.871,1.812,2.177-1.338,3.866-3.192.51-2.009-2.195-1.22-.118-1.042,1.781,1.824,1.362-1.533,3.578.382.616,1.51.042.917-.595Z" transform="translate(-11.096 -2981.055)" fill-rule="evenodd"/>
        <path id="smap__203099632" d="M216.717,3144.464l2.47-1.15.733.5,1.394.692-.376.613-.322.976-1.071-.031-.945,1.467-2.354-1.723Z" transform="translate(-179.381 -3110.78)" fill-rule="evenodd"/>
      </g>
      <g id="smap_varsinais-suomi" transform="translate(48.652 500.67)">
        <path id="smap__203103064" d="M314.539,2805.4l-.2-4.651-2.371,1.763-2.031.154-2.042-2.841-.821-1.2-1.508.83.789,4.276,1.988,2.036-.41,1.387-1.242-.97-1.173-2.329-1.331.086-.7.719,1.181,1.247-.083,1.4-2.422.481.155,1.016,2.764,1.654-.286.907-.585.4-.335.97.44,1.645.1,2.358.927,1.452-.058,3.23,2,5.174,2.6,2.255.791,3.35,2.03-.18.9-3.861,3.668-1.943,1.232.546-1.253,3.194-1.437-.137-1.321,1.833-.138,1.434,3.024-.73,3.873-.119,1.458,1.391-.072,1.422-1.353-.066-.584.715,1.983,1.786,1.608-1.023.635.492-.3,3.769,1.461.092,1.8,1.689,6.857-1.3,1.018-.872,1.632,1.226-2.679,4.227.007,1.731,2.856-.068,1.791,1.6,4.17-1.213,6.451-4.923,1.016,1.671-1.544,1.858-3.8,4.574.725,3.791,1.218.724,1.666.99-.1.816,4.549-.083,3.425-3.539,1.751,1.375,5.209-2.554,2.915,1.348-.2-6.139,2.713-.922.537-3.55,1.793-.187-.581-3.453-1.851-.742.241-2.475,4.22-.572,2.013-4.448-1-1.7.887-1.253-5.723-1.871-6.456-4.892-3.494,1.722-4.612-2.336-.139-2.144,1.239-1.094-1.5-1.731.254-2.5,2.651-.533,1.484-3.415-2.219-1.31.02-1.395-1.425.182.245-1.882-3.529.679-2.128-2.473-2.832-.938-.367,4.842-4.541-1.228-4.28,1.281.938,1.166-4.813,1.262-3.445-.64-2.881,2.559-1.011-1.47-4.89-.467-1.9-5.282-2.088-1.86Z" transform="translate(-298.517 -2798.632)" fill-rule="evenodd"/>
        <path id="smap__203118304" d="M297.121,2959.237v1.786h-1.572l-.676-.886-.275-.36-.453-3.458.653-.534Z" transform="translate(-291.934 -2927.546)" fill-rule="evenodd"/>
        <path id="smap__203089912" d="M317.607,2963.966l-2.134-2.685.018-2.216.81-.688,2.009,2.054.049.176.036.128,1.25,1.172-.559,1.655-.227.674Z" transform="translate(-309.429 -2929.671)" fill-rule="evenodd"/>
        <path id="smap__203118568" d="M298.871,2931.612l.091,1.569.066,1.148-1.258,1.242-1.179-1.217-.479-.494-.217-1.905,1.753-1.233Z" transform="translate(-293.369 -2906.986)" fill-rule="evenodd"/>
        <path id="smap__203104672" d="M327.509,3188.524l.143.485.1.354-1.406.918-.786.62-.319.251-1.411-.713,1.9-2Z" transform="translate(-316.288 -3118.393)" fill-rule="evenodd"/>
        <path id="smap__203116072" d="M357.07,3152.1l.788-1.249,1.072,1.014.007,1.38,0,1.01-.542.766-1.121-.1-.455-.04-.625-1.8Z" transform="translate(-342.836 -3087.561)" fill-rule="evenodd"/>
        <path id="smap__203113792" d="M283.175,3001.153l-1.336-1.01.175-1.3.071-.53.967-.609.9,1.754-.447.979Z" transform="translate(-281.839 -2961.929)" fill-rule="evenodd"/>
        <path id="smap__85559040" d="M298.215,3019.175l-.22.4-.161.29-1.65.156-.559-.719-.227-.291.482-1.287,1.2-.146Z" transform="translate(-292.96 -2978.231)" fill-rule="evenodd"/>
        <path id="smap__203100472" d="M315.215,3006.7l-.337.113-.246.083-.517.814-.559-.773-.227-.314.246-2.3,1.282-.144Z" transform="translate(-307.67 -2967.246)" fill-rule="evenodd"/>
        <path id="smap__85559760" d="M341.767,2999.829l2.775-1.7.358,1.2-.611.839-.447.615-.468.837-.87.027-.354.011-.393-.388Z" transform="translate(-330.989 -2962.282)" fill-rule="evenodd"/>
        <path id="smap__85556688" d="M296.806,3065.02l-1.037.334-1.13.475-3.615-1.242.561-3.229,1.2-.146,1.054,1.211,1.868-.05,1.366-.038-.081,1.291-.134.992Z" transform="translate(-289.373 -3014.027)" fill-rule="evenodd"/>
        <path id="smap__85558608" d="M329.681,3083.1l-.3.5-.123.2-1.132.774-2.373.1-1.051-1.312,1.415-1.4.182-.349,1.872-2.1,1.91-.146.032,1.289-.189.8-.138.584Z" transform="translate(-316.998 -3028.917)" fill-rule="evenodd"/>
        <path id="smap__85561296" d="M307.8,3049.946l.112-.418,1.033-1.055,1.36-.223-.192,1.821-.636.719-.465.525-.99-.218-.581-.4-.236-.16Z" transform="translate(-302.648 -3003.394)" fill-rule="evenodd"/>
        <path id="smap__203114656" d="M336.655,3054.2l-1.022-.776.064-2.626.026-1.068,1.046-.611,1.96,3.987-1.2.633Z" transform="translate(-325.967 -3004.107)" fill-rule="evenodd"/>
        <path id="smap__84091448" d="M384.741,2999.2l1.31,1.848-.36,1.6-.1,1.107-.039.449-1.32,1.3-1.746-.289.1-1.163.356-1.914-1.688-1.371-1.456-3.24.314-2.252.8-.667,1.832,1.1.2.967Z" transform="translate(-362.202 -2959.395)" fill-rule="evenodd"/>
        <path id="smap__84091520" d="M362.915,3082.984l.44-3.007.473-1.876,3.257-.036,1.84,1.289-.461.663-.337.483-2.068.521-1.219,1.765-.5.717Z" transform="translate(-348.346 -3027.851)" fill-rule="evenodd"/>
        <path id="smap__84091592" d="M358.219,3024l2.46.787.2,1.121.07.572.051.417-1.85.41-1.174-1.049-.477-.426.2-1.069Z" transform="translate(-343.905 -2983.499)" fill-rule="evenodd"/>
        <path id="smap__84091664" d="M378.629,3100.769l-.582-.987,1.231-1.17.5-.474,3.6,1.72-.351.967-2.543-.03Z" transform="translate(-360.759 -3044.317)" fill-rule="evenodd"/>
        <path id="smap__84091736" d="M403.008,3082.887l-.031-1.842,1.957-1.059.8-.431,1.01.633-.979,2.365-1.589.192Z" transform="translate(-381.208 -3029.073)" fill-rule="evenodd"/>
        <path id="smap__84091808" d="M427.8,3049.586l-.867-.97-.352-.4.3-1.63-2.021-.573-.438-1.657,1.36-2.556,2.177.537,1.9-.2,5.054-1.231.908,1.432-3.632,4.1-2.655,3Z" transform="translate(-398.796 -2997.372)" fill-rule="evenodd"/>
        <path id="smap__84091880" d="M444.263,3090.278l2.4-2.851,1.652-.092,1.01.632-1.508,2.143-.146-.067-.106-.049-1.037,1.193-1,0h-.406Z" transform="translate(-415.076 -3035.456)" fill-rule="evenodd"/>
        <path id="smap__84091952" d="M484.981,3160.6l-1.5-.3-1.1-.218-.944-2,.592-.482.241-.194,1.967.3,1.388,2Z" transform="translate(-445.571 -3092.943)" fill-rule="evenodd"/>
        <path id="smap__84092024" d="M455.241,3154.049l.621-.523,1.259.762-.1,1.376-.252,1.127-1.183-.029-.865-.02-.394-1.919.54-.487.22-.2Z" transform="translate(-423.327 -3089.752)" fill-rule="evenodd"/>
        <path id="smap__84092096" d="M459.133,3186.586l2.326-2.385,1.51.1.613.041-.1,1.61-2.222,1.542-1.226-.525Z" transform="translate(-427.273 -3114.915)" fill-rule="evenodd"/>
        <path id="smap__84092168" d="M541.792,3119.9l1.383-1.377.9.322.364.131-.655,1.454-1.588.273-.23-.464Z" transform="translate(-495.079 -3061.037)" fill-rule="evenodd"/>
        <path id="smap__84092240" d="M533.072,3134.513l1.5,2.238-.82.476-.333.194-1.388.629-.73-2.083,1.026-.841Z" transform="translate(-486.469 -3074.156)" fill-rule="evenodd"/>
        <path id="smap__84092312" d="M463.491,3077.754l.011-1.055.776-.767,1.652,1.137,10.406-2.455-2.786,3.839.9,2.013.659,1.472-2.782,2.957.031,1.238.013.5-1.1,1.51-2.28.347-2.827-1.134-1.819,1.132-2.8-.167-1.48-2.205.531-2.563,3.088-2.358-.2-1.192-1.076-1.314Z" transform="translate(-428.046 -3025.02)" fill-rule="evenodd"/>
      </g>
      <path id="smap_etela-pohjanmaa" d="M451.085,2133.561l.536,4.355,2.064.846,3.693-4.193,4.787.685,1.107-2.008,4.029-.061,1.035-6.941-1.372-1.851,1-1.411-.948-2.861-3.129-8.106,1.646-1.272-2.4-3.174-.857-6.862,1.887-2.59-5.357-2.5,2.365-.963-4.6-5.744-4.474-1.326-4.956-6.434-2.581-3.12-3.193-1.517-4.359-.059-1.652,4.786-2.185,1.894-3.15-.9-5.968,1.037L418.391,2086l-.066,4.382,1.456.049,1.158,5.02-2.969-.036-6.228,10.656.458,3.052-5.356,5.559-6.672-2.191-4.272-4.4-1.209,1.393-.642,6.544,1.358,1.353-4.42,4.732-3.536,10.323,1.39,3.39,2,.651.1,5.077,1.207.512,1.311,1.887-2.75,1.732.509,2.592-1.494,1.166-.59,5.155,2.434,2.2,6.069,1.062,7-5.875,2.144-.009,3.76-5.7,2.83-.095,2.425-4.887,3.334,1.635,2.05.016,5.237.018,5.725-3.086,2.61-4.545,5.044,1.945.705-1.761,3.8.535,4.687-3.81Z" transform="translate(-319.821 -1705.558)" fill-rule="evenodd"/>
      <path id="smap_keski-suomi" d="M773.577,2146.006l.52,1.747-.2,2.162,1.374.814.441-.246,1.808,1.062-1.763,1.217-.78,1.7.391,2.3,3.347,2.726-.217,4.2,14.018-1.3,2.835-10.077,4.258-1.928,2.259,1.061,2.964-5.06,3.306,1.641,3.781,5.751,5.316,2.106.479-1.267,3.4,1.074.95-3.465-3.858-5.615-.937-9.712,1.183-1.761-4.031-7.308,2.514-5.07,4.455-2.732,3.2,1.609,1.576-6.609,2.669-.933-3.015-3.289,1.911-1.308-1.211-1.384-1.972.252-4.058-2.568-.007-1.526,3.564-3.769-.89-5.158-3.231-4.874-2.237.545-7.595-9.38,5.336-.687,1.46-2.43-1.755-1.715,2.217-1.465-3.725-5.066-.632-9.521-1.906-2.613,1.258-4.646-5.618.039-1.622-3.382-1.728-1.422-4.293-.013-8.5-5.755-2.68,1.1-1.179,7.23-3.28.367-2.229.375-4.369,4.6-.463,12.482-4.169-.9-4.783,1.742-1.12.726-1.836,2.552.857,6.862,2.4,3.174-1.646,1.272,3.178,8.233.9,2.733-1,1.411,1.372,1.851-1.035,6.941-4.029.061-1.107,2.008-4.787-.685-3.724,4.182.019,5.057,3.888,2.295,2.041-.379,1.4,3.959,3.739.733,2.333-.827,4.077,4.274,1.3,4.7-2.618,4.132-.779-1.367-2.438,3.489,6.2,7.651,1.277.221-.016,1.146-1.307.081-.4-1.1Z" transform="translate(-622.023 -1678.082)" fill-rule="evenodd"/>
      <path id="smap_pirkanmaa" d="M511.26,2415.849l2.8,2.069,1.115,3.907-1.577,5.442-2.379-.764-.811,4.143,2.036,1.938-2.51,2.092-1.4,4.272-4.671,1.982,2.992,4.349-1.679,1.258.163,2.4,2.38,5.742,4.76,1.56,1.558-1.673,2.72,2.741-1.243,4.308,2.242,3.824-1.84.286,2.128,2.473,3.529-.68-.245,1.882,1.444-.271,1.873-1.133,2.6,1.945.415,1.8,2.633-.039,5.445-2.049,3.728,4.021.931-.9-.769-5.82,12.522-4.691,1.606-1.887-.6-.7-.068-1.165.629-.974.868.649,5.2-4.022,4.513,1.733.986-2.2,2.142,2.114,3.2-1.415-.4-9.454,1.571.9.217-4.2-3.347-2.726-.391-2.3.78-1.7,1.763-1.217-1.808-1.062-.441.246-1.374-.814.2-2.164-.521-1.745,1-.662.4,1.1,1.307-.081.016-1.146-1.277-.221-6.2-7.651,2.438-3.489.779,1.368,2.618-4.132-1.3-4.7-4.077-4.274-2.333.827-3.739-.733-1.4-3.959-2.041.379-3.888-2.3.013-5.047-2.064-.846-.536-4.355-2.1-1.317-4.687,3.81-3.8-.536-.705,1.761-5.044-1.945-2.61,4.545-5.725,3.086-5.214-.043,0,5.442-2.824,1.344-.16,4.7-3.294.315-1.672,2.766,2.513,1.219Z" transform="translate(-415.31 -1960.235)" fill-rule="evenodd"/>
      <path id="smap_satakunta" d="M328.584,2495.033l1.064.659.161.738.118.539-.707.932-.727.055-.3.022-.479-1.789.263-.5Zm3.851-25.313.891.25,1.033,1.871.756,1.368-.853.936-1.294,0-.526,0-1.257-1.32.936-.935.314-2.165Zm-3.561,33.741,1.249-2.476,1.336-7.53,1.37.9.694-.871-.144-1.183.859-4.383-1.868-4.324.353-.543.854-.275,1.278.494.984-.177-.662-1.6-2.044-1.064-.159-1.423,1.377.053,2.169.631-.062-.806-1.2-.957-1.286-2.579.543-1.018,1.016.072,1.616,1.819,1.213.042-2.349-5.207,0-4.722-2.439-3.118.49-1.067,1.428-.149.093-.837-1.1-.842-.673-4.239-1.625-.984-.374-1.372,2.754-2.478,5.564-.645,2.434,2.2,6.069,1.063,7-5.876,2.144-.01,3.76-5.7,2.83-.1,2.425-4.886,3.334,1.634,2.073-.009,0,5.442-2.824,1.345-.16,4.695-3.294.316-1.672,2.765,2.513,1.219,0,2.468,2.8,2.07,1.115,3.907-1.577,5.441-2.379-.763-.811,4.143,2.036,1.937-2.51,2.091-1.4,4.273-4.671,1.981,2.992,4.351-1.678,1.257.163,2.405,2.38,5.742,4.76,1.559,1.557-1.672,2.72,2.741-1.243,4.307,2.242,3.824-1.84.286-2.832-.938-.367,4.841-4.541-1.228-4.28,1.283.938,1.167-4.813,1.26-3.445-.638-2.881,2.559-1.011-1.471-4.89-.467-1.9-5.283-2.088-1.86-3.815,2.721-.2-4.652-2.371,1.762-2.031.155-2.023-2.814Z" transform="translate(-270.823 -2001.567)" fill-rule="evenodd"/>
      <g id="smap_kymenlaakso" transform="translate(186.038 496.489)">
        <path id="smap__84092744" d="M1048.825,2788.018l-1.059-2.262.673-2.406,3.969.012,3.83-2.559,1.438-3.726,1.686-.924,1.97-.784,2.925,4.581,2.743-1.4.047-2.8,3.663.075.011,4.808,5.081,2.488,2.949-.978,1.844,4.134-2.891,1.062-.928,3.093,2.627,3.165-1.454.857,1.393,2.349,4.653,1.341,1.254,2.175,3.481,1.83,3.941-.1,1.327,2.656,2.955.433,1.427,3.467,3.27,1.65-2.878,2.733-.089,1.821-1.882,1.229-2.194-1.418-.876.663-.683,3.025-.967,1.56-1.462.045-1.771.254-1.16-.633-1.065.706-1.283,1.192-1.648-2.412-4.272-.5-5.181-1.671-2.1,2.081.062,3.337-.755,1.339-2.124-.064-2.438-2.4-1.424,1.28-1.822.063-1.14-1.188-1.207.827-2.971.608-.672-2.04,3.2-6.1-.371-.557-1.8-.3-.961-3.212-2.438-.46-.75-3.212-2.958-1.4-.7-.331-.406-2.823-2.47-1.616-.109-3.046,1.409-2.64-2.92-1.237.983-1.851,2.265.137Z" transform="translate(-1046.375 -2775.369)" fill-rule="evenodd"/>
        <path id="smap__84092816" d="M1153.267,3058.751l-.628,1.037-1.2-.688-.987-.667,1.711-1.4Z" transform="translate(-1131.753 -3006.417)" fill-rule="evenodd"/>
        <path id="smap__84092888" d="M1124.075,3039.761l.393,1.423-2.376,1.8-1.38-1.21,1.948-2.023Z" transform="translate(-1107.354 -2992.24)" fill-rule="evenodd"/>
        <path id="smap__84091424" d="M1216.9,3080.786l.581.418-1.336.8-1.589-.066.035-1.366.836-.811.4.031Z" transform="translate(-1184.331 -3025.065)" fill-rule="evenodd"/>
        <path id="smap__83431472" d="M1196.929,3038.394l-1.1.027-.961-2.241.743-2.451,1.318.462Z" transform="translate(-1168.184 -2987.301)" fill-rule="evenodd"/>
      </g>
      <path id="smap_keski-pohjanmaa" d="M662.614,1923.844l-11.165-13.488-2.994-8.886-2.686-1.044-.907-3.765-1.964-1.009-1.715-6.762-3.735.716-1.471,2.728,1.624,2.177-1.414.76-1.7-1.51-2.252.029-3.605-4.91-1.727.3-2.152-2.028-1.455,1.024-.191,8.221-8.7.389-1.065,1.536-1.2.026-1.087-1.292-2.376-.014c-.06.089-.073.007-.133.1l2.6,7.057,1.133-1.515,5.952,4.388,4.2-2.024,1.1,1.617,1.934-1.481,6.695,5.314-1.524,1.613-3.142.071-1.958-1.575-2.5,1.6,1.651,2.881,1.532-.431,3.717,6.66-1.419,4.675,4.946,6.314,4.474,1.327,4.6,5.744-2.365.964,5.357,2.5,1.069-.688,4.783-1.742,4.169.9.463-12.482,4.369-4.6,2.229-.375Z" transform="translate(-501.182 -1550.271)" fill-rule="evenodd"/>
      <g id="smap_uusimaa" transform="translate(94.428 521.437)">
        <path id="smap__83390544" d="M930.047,3097.6l-1.867.12-.417-.7-.4-.446.873-.738h1.25l.555.244,1.043.063-.444.811Z" transform="translate(-857.138 -3063.197)" fill-rule="evenodd"/>
        <path id="smap__83390616" d="M958.648,3098l.361,3.136-1.142.176-.319-.652-.008-1.689Z" transform="translate(-881.893 -3064.969)" fill-rule="evenodd"/>
        <path id="smap__83431544" d="M975.225,3084.089l-.929.954-.842-.7-.083-2.36-.087-3.165.873-.273.383,2.024,1.014,1.188-.038,1.389-.271.291Z" transform="translate(-894.808 -3049.012)" fill-rule="evenodd"/>
        <path id="smap__83390688" d="M1008.982,3098.813l1.042-.282.617-.534,1.238.958.459.936-1.165,1.188-2.335-.313-.084-.809Z" transform="translate(-923.904 -3064.969)" fill-rule="evenodd"/>
        <path id="smap__83390760" d="M1048.724,3081.145l.452,1.968-1.649.338-1.161-1.122Z" transform="translate(-954.756 -3051.145)" fill-rule="evenodd"/>
        <path id="smap__83390832" d="M1064.933,3069.957l-.2-.512.377-1.246,1.274-.016.847,1.891-1.1.57Z" transform="translate(-969.823 -3040.512)" fill-rule="evenodd"/>
        <path id="smap__83390928" d="M1105.072,3055.85l-.078,1.269-2.769-.453-.75-1.211.768-1.014Z" transform="translate(-999.963 -3029.24)" fill-rule="evenodd"/>
        <path id="smap__83391000" d="M640.034,2936.714l-2.425,2.153-1.356-.049-.129,1.943-1.606-1.98-2.467-.063.7,2.333-1.1.086-.934-2.058-1.981-2.013-2.825-2.664-.248,1.456,1.733,2.309.479,1.893,1.7,2.976-1.018.438-1.382-.677-.9.309.169,2.248-.928.365-1.52-3.09-.761.611.848,2.683-.774.987-1.494-.92-1.351,1.438-.91-.171-2.3-2.818-.72-2.631-2.9.323-.066,2.385-1.115,1.355-4.414.113-2.481.676-1.031.281-.41,1.251-1.41,1.889-1.966-.6.308,2.254-1.967,1.643-.385-2.1-.868,1.359-2.57-.036-1.828-1.231-4.871,1.689-.948-.938-.391.92.007,1.778-5.345,6.63-1.731-.133,2.355-3.05-1.1-.625-1.262,1.085-.861-.009.168-3.444-4.018,2.193-5.5.118-6.678,2.826-3.3.3.464,1.673-1.174.886-2.282-.489-2.906.613-1.417-1-2.2-.28-1.807,1.977v1.291l-2.357,1.988-4.559-.036-3.772,1.547-1.259-1.571,1.179-1.312,5.032-1.752,1.021-1.215.47-3.465-.867-1.324-1.021.813-.076,2.843-.862.83-3.226-.555-1.769-2.307.437-2.112,2.043-.088,1.65.841.756-6.368-.049,0,4.6-.086,3.425-3.539,1.751,1.375,5.209-2.554,2.915,1.348-.2-6.139,2.713-.922.537-3.55,1.794-.187-.581-3.452-1.851-.742.241-2.475,4.22-.572,2.013-4.448-1-1.7.887-1.253,8.31,1.413,1.025,2.241,1.967-1.488,2.023.953.5,1.862,5.083-.987-.221-2.577,1.43-1.9,3.2.469,5.415-.7,1.828-.773,3.633,1.019-.266-1.6,2.4-1.722-1.659-1.145-1.628,1.366.429-2.286,1.971-.561h0l-.788-1.961,2.57-.674,3.719,4.464,2.883-2.98.861.759,1.274,4.565.267-.149,1.279,1.58,5.123-1.567,1.56.253,2.428-1.693.14,2.471,3.621-.78,2.308,2.045,2.4-1.272.3-2.5,2.876,1.348.75,3.212,2.438.46.961,3.212,1.8.3.371.557-3.2,6.1Z" transform="translate(-536.577 -2914.2)" fill-rule="evenodd"/>
        <path id="smap__83391072" d="M615.576,3196.734l-.745-.5.99-1.143,1.337.271,1.73-.442-.6,1.37-.8.21-.9.5Z" transform="translate(-600.768 -3144.476)" fill-rule="evenodd"/>
        <path id="smap__83391144" d="M695.741,3167.039l.99-1.763,1.266-.739h1.171l.573.32,1.026-.012-1.9,1.608-1.609,1.352Z" transform="translate(-667.14 -3119.552)" fill-rule="evenodd"/>
      </g>
      <g id="smap_pohjanmaa" transform="translate(52.189 346.92)">
        <path id="smap__83391240" d="M570.919,1963.871l-.865-1.707.671-2.153.273-.875,1.257,1.087-.217,2.507-.646.659Z" transform="translate(-521.799 -1956.242)" fill-rule="evenodd"/>
        <path id="smap__83727152" d="M452.4,2067.995l-.865-2.1,1.174-.331.477-.135.707.7-.06,1.5-.828.212Z" transform="translate(-424.575 -2043.437)" fill-rule="evenodd"/>
        <path id="smap__83727824" d="M475.207,2092.226h1.65l1.014.937-.354.586-.259.428-1.8.09-.852.647-.346.262-.865-.077Z" transform="translate(-442.513 -2065.416)" fill-rule="evenodd"/>
        <path id="smap__83727752" d="M478.648,2110.984l2.358-1.475,2.519,1.053,1.175-.588.149,1.792-.581,1.078-.425.789-2.426-1.152-1.466.039-.6.016Z" transform="translate(-446.819 -2079.593)" fill-rule="evenodd"/>
        <path id="smap__83727680" d="M429.664,2110.27l1.415-1.632,2.193,1.869-.218.676-.159.494-1.325-1.231-.628,1.364-.255.555-1.022-.234Z" transform="translate(-406.637 -2078.879)" fill-rule="evenodd"/>
        <path id="smap__83727608" d="M365.336,2080.989l.015,1,.011.728-1.119,1.686H362.75l.629-1.63.943-1.787Z" transform="translate(-351.747 -2056.194)" fill-rule="evenodd"/>
        <path id="smap__83727536" d="M380.834,2089.631l.378.863.277.629-1.119,1.454h-1.886l-.865-1.475,1.886-1.476Z" transform="translate(-363.944 -2063.283)" fill-rule="evenodd"/>
        <path id="smap__83391312" d="M350.371,2105.98l.94,1.044,1.645-1.626,1.11.97.032,1.258-.654.62-.478.451.595,1.023,1.314.041.534.018.71-1.492,1.523.41,1.239,2.66-.749,1.923-2.043-.71-1.166,1.8L353.3,2114l-1.119-1.03-1.258-.079-1.729-6.522Z" transform="translate(-340.625 -2076.221)" fill-rule="evenodd"/>
        <path id="smap__83727464" d="M303.791,2196.394l-.03.771-.022.564-.49.988h-1.1l-.629-1.165,1.1-1.632Z" transform="translate(-301.52 -2150.478)" fill-rule="evenodd"/>
        <path id="smap__203104576" d="M349.192,2197.412l1.022-.62,1.234.99.1.776.073.568-.366,1.646-.74-.014-.3-.007-1.022-.854Z" transform="translate(-340.625 -2151.191)" fill-rule="evenodd"/>
        <path id="smap__84441160" d="M340.406,2243.048l.424.908.31.663-1.04.753-.671.553-.272.223-1.336-.776.943-1.553Z" transform="translate(-331.297 -2189.136)" fill-rule="evenodd"/>
        <path id="smap__84441232" d="M329.055,2278.054l.605,1.22.443.893-.333.521-.838.054-.341.023-.393-.776.157-1.786Z" transform="translate(-323.404 -2217.851)" fill-rule="evenodd"/>
        <path id="smap__84441304" d="M324.216,2335.56l.035.435.025.32-1.257.7-.671-.663-.273-.27.386-1.091.55-.768Z" transform="translate(-318.382 -2263.926)" fill-rule="evenodd"/>
        <path id="smap__84441376" d="M377.42,1946.666l.5,2.894-.284,2.119-2.2,1.384-.334,1.556-1.214.518-1.743,1.483-.183.875-1.633,1.177-.686,2.967-1.193-1.546-1.241.672-.9,3.855-1.384.081-.72.942.435,1.391,1,.994,2.2,4.87-.8,1.928-2.015.04-1.476,2.764-2.356.545-6.292-2.227-4.479,1.862-2.087.045-.88-2.6-1.462,1.465-.139,3.895-1.527,1.873.224,1.411,1.8,1.549.569,1.391-.934.358-1.664-.437-1.151.37-1.812-1.188-.845,1.355,1.905,1.434.813,1.725-.193,2.108-1.908,1.788.238,1.866-.777.784-2.047.23-.13-.989-1.994.677-.542,3.246-1.038,1.1-2.054-.106-.217.866,1.218,1.37-.176,1.56L332.452,2006l-.892,1.033-.587,3.693.695.827,1.235-1.026.941.7.185,1.17-1.8,2.9-.4,3.35.839.879-1.089,4.281,1.173,1.8,3.946.192-.118,1.272-1.852,2.437.007,2.024,2.716,1.048.286,1.45-2.164,2.284.083,2.018-1.4,2.268-1.313,4.921,1.426,2.337.118.432,2.754-2.479,5.564-.645.59-5.155,1.494-1.166-.509-2.592,2.75-1.733-1.311-1.887-1.207-.512-.1-5.077-2-.651-1.39-3.39,3.536-10.323,4.42-4.732-1.358-1.353.642-6.544,1.209-1.393,4.272,4.4,6.672,2.191,5.357-5.559-.458-3.052,6.228-10.656,2.969.036-1.158-5.02-1.456-.049.066-4.382,5.665-2.725,5.968-1.037,3.15.9,2.185-1.894,1.652-4.786,4.359.059,3.193,1.517,2.581,3.12,1.428-4.556-3.717-6.659-1.532.43-1.651-2.881,2.5-1.6,1.958,1.576,3.142-.072,1.524-1.612-6.695-5.315-1.934,1.481-1.1-1.618-4.2,2.024-5.952-4.387-1.133,1.515-2.568-7-1.664,2.459Z" transform="translate(-325.68 -1943.033)" fill-rule="evenodd"/>
      </g>
      <path id="smap_etela-karjala" d="M1227.151,2614.344l1.682-3.391,3.242.074,1.871-2.256,3.073.624,9.02-.777,4.608-5.627,1.374-3.363,2.583,1.947,6.792-.041.877-3.044,5.543.246,5.589-1.767,3.452-5.658,4.4-1.47,1.025-2.881,16.26-8.62-.528.532-2.174,6.071-5.461,4.964-3.674,7.613-4.628,3.237-1.045,3.192-6.87,11.436-8.041,5.508-2.876,1.156-3.453,5.839-.437,3.828-3.716.818-6.961,6.015-1.336,3.526-6.916,6.565-3.269-1.65-1.427-3.467-2.955-.433-1.327-2.656-3.941.1-3.481-1.83-1.254-2.175-4.653-1.341-1.393-2.349,1.455-.857-2.627-3.165.928-3.093,2.891-1.062-1.848-4.141,3.9-.926,2.907-5.009Z" transform="translate(-999.115 -2117.256)" fill-rule="evenodd"/>
    </g>
  </g>
</svg>
